<?xml version="1.0" standalone="no"?><!DOCTYPE svg PUBLIC "-//W3C//DTD SVG 1.1//EN" "http://www.w3.org/Graphics/SVG/1.1/DTD/svg11.dtd"><svg t="1544748071677" class="icon" style="" viewBox="0 0 1024 1024" version="1.1" xmlns="http://www.w3.org/2000/svg" p-id="3981" xmlns:xlink="http://www.w3.org/1999/xlink" width="128" height="128"><defs><style type="text/css"></style></defs><path d="M508.15488 509.33248m-485.53984 0a485.53984 485.53984 0 1 0 971.07968 0 485.53984 485.53984 0 1 0-971.07968 0Z" fill="#F2F2F2" p-id="3982"></path><path d="M834.80576 317.27616a39.808 39.808 0 0 0-0.19456-3.29728 41.24672 41.24672 0 0 0-45.48096-36.52608 41.16992 41.16992 0 0 0-13.2096 3.77856c-5.64224-16.05632-20.89984-27.59168-38.88128-27.59168a41.18528 41.18528 0 0 0-34.63168 18.8928c-0.24064-0.00512-0.47616-0.03584-0.72192-0.03584a41.24672 41.24672 0 0 0-41.24672 41.24672c0 1.19296 0.0768 2.36544 0.1792 3.53792h174.18752z" fill="#71B9CC" p-id="3983"></path><path d="M403.968 277.65248a51.04128 51.04128 0 0 0-0.23552-4.02944c-3.0208-27.66336-27.89376-47.63648-55.552-44.61568a50.2272 50.2272 0 0 0-16.13312 4.61312 50.30912 50.30912 0 1 0-89.79968-10.624c-0.29696-0.00512-0.58368-0.04608-0.88064-0.04608-27.8272 0-50.3808 22.55872-50.3808 50.3808 0 1.4592 0.09728 2.8928 0.22016 4.31616H403.968z" fill="#AFD8E2" p-id="3984"></path><path d="M58.112 691.57888c72.08448 177.82272 246.36416 303.29344 450.04288 303.29344s377.9584-125.47072 450.04288-303.29344H58.112z" fill="#AAA5A5" p-id="3985"></path><path d="M805.77536 411.35104H495.7696c-15.60064 0-30.33088 5.10464-42.5984 14.76096l-7.33184 5.77024h324.57728c26.68544 0 48.39936 21.71392 48.39936 48.39936s-21.71392 48.39936-48.39936 48.39936H445.83936l7.33184 5.77024a68.2496 68.2496 0 0 0 42.5984 14.76096h310.00576c38.01088 0 68.93056-30.91968 68.93056-68.93056s-30.91968-68.93056-68.93056-68.93056z" fill="#CC3333" p-id="3986"></path><path d="M802.36544 428.65664H433.43872c16.90112 11.88864 27.96032 31.52896 27.96032 53.76 0 19.75296-8.7296 37.45792-22.528 49.50016h363.49952c28.51328 0 51.63008-23.1168 51.63008-51.63008-0.00512-28.5184-23.1168-51.63008-51.6352-51.63008z" fill="#FFFFFF" p-id="3987"></path><path d="M797.15328 542.36672H446.4384a76.75392 76.75392 0 0 0-47.92832 16.60416l-7.33184 5.77024h365.97248c30.42304 0 55.17312 24.75008 55.17312 55.17312 0 30.42816-24.75008 55.18336-55.17312 55.18336h-365.9776l7.33184 5.77024a76.75392 76.75392 0 0 0 47.92832 16.60416h350.71488c42.76224 0 77.55264-34.79552 77.55264-77.55776s-34.78016-77.54752-77.54752-77.54752z" fill="#4C9173" p-id="3988"></path><path d="M793.2928 561.51552H375.92064c19.1232 13.45024 31.63136 35.66592 31.63136 60.82048 0 22.3488-9.87648 42.37312-25.48736 55.99744h411.22816c32.256 0 58.40896-26.15296 58.40896-58.40896 0-32.26112-26.14784-58.40896-58.40896-58.40896z" fill="#FFFFFF" p-id="3989"></path><path d="M793.28768 724.98688l-31.42144-24.4992-30.35648 24.4992V561.664h61.77792z" fill="#C53B2C" p-id="3990"></path><path d="M148.47488 594.62144l5.41696 43.63264h10.81344l16.23552 52.81792h129.87392l16.2304-52.81792h10.8288l5.40672-43.63264H148.47488z" fill="#C19165" p-id="3991"></path><path d="M226.28864 591.95904c2.06848 0.01024 3.20512-0.1536 3.20512-0.1536s0.15872-1.13664 0.1536-3.2c-0.03072-8.02304-2.60608-30.11584-26.94656-54.64576-30.61248-30.85824-70.4512-37.51936-70.4512-37.51936s9.23136 37.51936 39.85408 68.36736c24.29952 24.50944 46.19776 27.11552 54.18496 27.15136zM245.88288 420.07552s-21.64224 43.63264-21.64224 98.18112c0 54.54336 21.64224 76.3648 21.64224 76.3648s21.64224-21.82144 21.64224-76.3648c0-54.54848-21.64224-98.18112-21.64224-98.18112zM261.376 588.60032c-0.01024 2.06848 0.1536 3.20512 0.1536 3.20512s1.13664 0.16384 3.20512 0.1536c7.98208-0.03584 29.88032-2.64192 54.18496-27.15136 30.6176-30.848 39.85408-68.36736 39.85408-68.36736s-39.84384 6.66112-70.4512 37.51936c-24.34048 24.52992-26.91072 46.6176-26.94656 54.64064z" fill="#84D8B4" p-id="3992"></path></svg>